<svg xmlns="http://www.w3.org/2000/svg" width="256" height="256" viewBox="0 0 256 256">
  <defs>
    <radialGradient id="g" cx="50%" cy="45%" r="75%">
      <stop offset="0%" stop-color="#352923"/>
      <stop offset="55%" stop-color="#2a211d"/>
      <stop offset="100%" stop-color="#1e1714"/>
    </radialGradient>
    <filter id="s" x="-20%" y="-20%" width="140%" height="140%">
      <feTurbulence type="fractalNoise" baseFrequency="0.9" numOctaves="2" seed="8"/>
      <feColorMatrix type="saturate" values="0"/>
      <feComponentTransfer>
        <feFuncA type="table" tableValues="0 0.05"/>
      </feComponentTransfer>
    </filter>
  </defs>

  <rect width="256" height="256" fill="url(#g)"/>
  <rect width="256" height="256" filter="url(#s)" fill="#ffffff"/>

  <g fill="#6f5c4a" opacity="0.34">
    <circle cx="20" cy="18" r="1"/><circle cx="52" cy="40" r="1"/><circle cx="86" cy="22" r="1"/><circle cx="118" cy="36" r="1"/>
    <circle cx="148" cy="18" r="1"/><circle cx="182" cy="34" r="1"/><circle cx="216" cy="22" r="1"/><circle cx="238" cy="46" r="1"/>
    <circle cx="30" cy="78" r="1"/><circle cx="66" cy="96" r="1"/><circle cx="100" cy="76" r="1"/><circle cx="134" cy="92" r="1"/>
    <circle cx="168" cy="80" r="1"/><circle cx="200" cy="98" r="1"/><circle cx="230" cy="86" r="1"/><circle cx="14" cy="132" r="1"/>
    <circle cx="46" cy="146" r="1"/><circle cx="82" cy="128" r="1"/><circle cx="116" cy="146" r="1"/><circle cx="150" cy="132" r="1"/>
    <circle cx="184" cy="144" r="1"/><circle cx="220" cy="128" r="1"/><circle cx="246" cy="152" r="1"/><circle cx="26" cy="186" r="1"/>
    <circle cx="62" cy="204" r="1"/><circle cx="96" cy="184" r="1"/><circle cx="130" cy="200" r="1"/><circle cx="164" cy="188" r="1"/>
    <circle cx="198" cy="202" r="1"/><circle cx="232" cy="190" r="1"/><circle cx="12" cy="236" r="1"/><circle cx="44" cy="222" r="1"/>
    <circle cx="78" cy="238" r="1"/><circle cx="112" cy="224" r="1"/><circle cx="146" cy="238" r="1"/><circle cx="180" cy="224" r="1"/>
    <circle cx="214" cy="238" r="1"/><circle cx="246" cy="224" r="1"/>
  </g>

</svg>
