<svg xmlns="http://www.w3.org/2000/svg" width="256" height="222" viewBox="0 0 256 222">
  <defs>
    <radialGradient id="fireBody" cx="50%" cy="46%" r="72%">
      <stop offset="0%" stop-color="#fff7d6"/>
      <stop offset="18%" stop-color="#ffe08a"/>
      <stop offset="42%" stop-color="#ffad3f"/>
      <stop offset="66%" stop-color="#f06a1a"/>
      <stop offset="100%" stop-color="#561713"/>
    </radialGradient>
    <radialGradient id="fireCore" cx="50%" cy="48%" r="34%">
      <stop offset="0%" stop-color="#fffdf1"/>
      <stop offset="40%" stop-color="#ffe59e"/>
      <stop offset="76%" stop-color="#ffb649"/>
      <stop offset="100%" stop-color="#ffb649" stop-opacity="0"/>
    </radialGradient>
    <linearGradient id="charRim" x1="0%" y1="0%" x2="100%" y2="100%">
      <stop offset="0%" stop-color="#2a0d0a"/>
      <stop offset="60%" stop-color="#171015"/>
      <stop offset="100%" stop-color="#090508"/>
    </linearGradient>
    <linearGradient id="sparkStroke" x1="0%" y1="0%" x2="100%" y2="100%">
      <stop offset="0%" stop-color="#fff7ca"/>
      <stop offset="50%" stop-color="#ffd36a"/>
      <stop offset="100%" stop-color="#ff8b1e"/>
    </linearGradient>
    <filter id="fireGlow" x="-40%" y="-40%" width="180%" height="180%">
      <feGaussianBlur stdDeviation="5" result="blur" />
    </filter>
    <filter id="softGlow" x="-30%" y="-30%" width="160%" height="160%">
      <feGaussianBlur stdDeviation="2" result="blur" />
    </filter>
    <clipPath id="hexClip">
      <polygon points="63,10 193,10 252,111 193,212 63,212 4,111" />
    </clipPath>
  </defs>

  <polygon points="63,10 193,10 252,111 193,212 63,212 4,111" fill="url(#charRim)" stroke="#7d3119" stroke-width="3.5" />
  <polygon points="63,10 193,10 252,111 193,212 63,212 4,111" fill="none" stroke="rgba(255,226,150,0.2)" stroke-width="1.2" />

  <g clip-path="url(#hexClip)">
    <ellipse cx="128" cy="112" rx="86" ry="76" fill="#ff8d1f" opacity="0.14" filter="url(#fireGlow)" />
    <ellipse cx="128" cy="108" rx="68" ry="58" fill="url(#fireBody)" opacity="0.96" />
    <ellipse cx="128" cy="108" rx="44" ry="36" fill="url(#fireCore)" opacity="0.9" />

    <path
      d="M64 119 L84 109 L98 119 L112 99 L128 81 L145 97 L160 84 L176 100 L192 92"
      fill="none"
      stroke="#ffdf85"
      stroke-width="10"
      stroke-linecap="round"
      stroke-linejoin="round"
      opacity="0.15"
      filter="url(#fireGlow)"
    />
    <path
      d="M64 119 L84 109 L98 119 L112 99 L128 81 L145 97 L160 84 L176 100 L192 92"
      fill="none"
      stroke="url(#sparkStroke)"
      stroke-width="4.4"
      stroke-linecap="round"
      stroke-linejoin="round"
      opacity="0.96"
    />

    <path
      d="M57 137 L77 126 L96 134 L110 121 L128 103 L146 117 L161 106 L178 119 L198 111"
      fill="none"
      stroke="#ff7d1b"
      stroke-width="7.5"
      stroke-linecap="round"
      stroke-linejoin="round"
      opacity="0.34"
      filter="url(#softGlow)"
    />
    <path
      d="M57 137 L77 126 L96 134 L110 121 L128 103 L146 117 L161 106 L178 119 L198 111"
      fill="none"
      stroke="#ffd47a"
      stroke-width="2.5"
      stroke-linecap="round"
      stroke-linejoin="round"
      opacity="0.56"
    />

    <path
      d="M89 56 L104 78 L100 98 L111 116"
      fill="none"
      stroke="#b63a14"
      stroke-width="6"
      stroke-linecap="round"
      stroke-linejoin="round"
      opacity="0.5"
    />
    <path
      d="M168 59 L153 79 L157 98 L145 117"
      fill="none"
      stroke="#b63a14"
      stroke-width="6"
      stroke-linecap="round"
      stroke-linejoin="round"
      opacity="0.5"
    />
    <path
      d="M103 146 L116 132 L128 142 L142 130 L154 144"
      fill="none"
      stroke="#c74d19"
      stroke-width="5.5"
      stroke-linecap="round"
      stroke-linejoin="round"
      opacity="0.4"
    />

    <path
      d="M128 50 C140 63 145 76 143 91 C141 104 136 116 128 136 C120 116 115 104 113 91 C111 76 116 63 128 50 Z"
      fill="#fff6d8"
      opacity="0.92"
    />
    <path
      d="M128 65 C134 73 137 82 136 91 C135 99 132 107 128 116 C124 107 121 99 120 91 C119 82 122 73 128 65 Z"
      fill="#ffb63b"
      opacity="0.98"
    />
    <path
      d="M110 88 C115 94 117 101 116 109 C115 116 111 122 106 128 C103 121 101 115 101 108 C101 100 104 92 110 88 Z"
      fill="#ff7d1c"
      opacity="0.9"
    />
    <path
      d="M146 84 C141 90 139 97 140 105 C141 112 145 118 150 124 C153 117 155 111 155 104 C155 97 152 89 146 84 Z"
      fill="#ff7d1c"
      opacity="0.9"
    />

    <circle cx="88" cy="77" r="5.2" fill="#ffd66e" opacity="0.85" />
    <circle cx="170" cy="79" r="4.6" fill="#ff9f2e" opacity="0.85" />
    <circle cx="76" cy="134" r="4.8" fill="#ff7f1f" opacity="0.82" />
    <circle cx="181" cy="132" r="5.3" fill="#ffd66e" opacity="0.82" />
    <circle cx="128" cy="108" r="30" fill="#fff8e2" opacity="0.1" filter="url(#fireGlow)" />
    <circle cx="128" cy="108" r="16" fill="#fffce8" opacity="0.32" />
  </g>

  <polygon points="63,10 193,10 252,111 193,212 63,212 4,111" fill="none" stroke="#ffcf7a" stroke-opacity="0.24" stroke-width="1.1" />
</svg>
